<svg width="72" height="60" viewBox="0 0 72 60" fill="none" xmlns="http://www.w3.org/2000/svg">
<path fill-rule="evenodd" clip-rule="evenodd" d="M71.037 19.8505C71.037 19.2216 70.6986 18.6413 70.1513 18.3316L39.5992 1.04289C37.15 -0.343055 34.1546 -0.347933 31.7009 1.03003L0.88941 18.3333C0.340062 18.6418 0 19.2228 0 19.8529C0 20.8154 0.780263 21.5956 1.74277 21.5956H8.04211V55.1037C8.04211 57.3244 9.84235 59.1247 12.0631 59.1247H58.9743C61.195 59.1247 62.9953 57.3244 62.9953 55.1037V21.5956H69.2918C70.2557 21.5956 71.037 20.8143 71.037 19.8505Z" fill="#BD3959"/>
<path d="M24.0903 37.7064C24.0903 40.5633 21.772 42.8912 18.9055 42.8912C16.0486 42.8912 13.7207 40.5729 13.7207 37.7064C13.7207 34.8495 16.0389 32.5216 18.9055 32.5216C21.772 32.5216 24.0903 34.8399 24.0903 37.7064Z" fill="#FCA905"/>
<path d="M11.1143 58.9629H27.1688V52.552C27.1688 47.7543 23.5712 43.8724 19.1463 43.8724C14.7119 43.8724 11.1239 47.7647 11.1239 52.552V58.9629H11.1143Z" fill="#FCA905"/>
<path d="M21.8154 59.1246H42.3933V50.5758C42.3933 45.8265 37.7867 41.9763 32.1044 41.9763C26.422 41.9763 21.8154 45.8265 21.8154 50.5758V59.1246Z" fill="white"/>
<path d="M38.2105 34.1682C38.2105 37.425 35.5678 40.0786 32.3001 40.0786C29.0323 40.0786 26.3896 37.4359 26.3896 34.1682C26.3896 30.9114 29.0323 28.2578 32.3001 28.2578C35.5678 28.2578 38.2105 30.9004 38.2105 34.1682Z" fill="white"/>
<path d="M54.8497 31.0518C54.8497 34.3086 52.207 36.9623 48.9392 36.9623C45.6715 36.9623 43.0288 34.3196 43.0288 31.0518C43.0288 27.7951 45.6715 25.1414 48.9392 25.1414C52.207 25.1414 54.8497 27.7841 54.8497 31.0518Z" fill="#FCA905"/>
<path d="M38.4561 59.1246H59.034V48.8661C59.034 43.1669 54.4274 38.5467 48.745 38.5467C43.0627 38.5467 38.4561 43.1669 38.4561 48.8661V59.1246Z" fill="#FCA905"/>
</svg>
