<svg width="197" height="80" viewBox="0 0 197 80" fill="none" xmlns="http://www.w3.org/2000/svg">
<path d="M95.9507 6.97456H79.8588V15.759H94.357V18.6354H79.8588V30.8014H76.7881V4.09824H95.9507V6.97456Z" fill="#BD3959"/>
<path d="M112.174 10.706H115.089V30.8014H112.174V27.5753C111.008 29.7131 108.403 31.2679 105.566 31.2679C101.135 31.2679 98.0253 28.0417 98.0253 23.494V10.706H100.941V23.1053C100.941 26.3703 103.001 28.6636 105.955 28.6636C109.336 28.6636 112.174 26.2926 112.174 23.494V10.706Z" fill="#BD3959"/>
<path d="M127.519 27.8474L128.957 29.9852C127.908 30.8015 126.586 31.2679 125.226 31.2679C122.35 31.2679 120.328 29.1301 120.328 26.1371V13.3103H117.18V10.706H120.328V5.18658H123.244V10.706H128.18V13.3103H123.244V26.1371C123.244 27.6142 124.254 28.6636 125.42 28.6636C126.314 28.6636 127.092 28.3138 127.519 27.8474Z" fill="#BD3959"/>
<path d="M144.898 10.706H147.814V30.8014H144.898V27.5753C143.732 29.7131 141.128 31.2679 138.291 31.2679C133.859 31.2679 130.75 28.0417 130.75 23.494V10.706H133.665V23.1053C133.665 26.3703 135.725 28.6636 138.679 28.6636C142.061 28.6636 144.898 26.2926 144.898 23.494V10.706Z" fill="#BD3959"/>
<path d="M154.608 14.6318C155.813 11.9498 158.689 10.2396 162.382 10.2396V12.8438C157.834 12.8438 154.608 15.6424 154.608 19.5682V30.8014H151.693V10.706H154.608V14.6318Z" fill="#BD3959"/>
<path d="M173.138 28.6636C175.509 28.6636 178.23 27.6142 179.474 26.2537L181.262 28.1583C179.513 30.0629 175.976 31.2679 173.177 31.2679C167.813 31.2679 162.994 26.8757 162.994 20.6954C162.994 14.7096 167.502 10.2396 172.905 10.2396C178.969 10.2396 182.428 14.8262 182.428 21.8615H165.986C166.414 25.7873 169.174 28.6636 173.138 28.6636ZM173.022 12.8438C169.446 12.8438 166.57 15.3703 166.025 19.2573H179.552C179.163 15.6424 177.025 12.8438 173.022 12.8438Z" fill="#BD3959"/>
<path d="M186.882 23.0075V18.8297H196.95V23.0075H186.882Z" fill="#BD3959"/>
<path d="M88.1134 38.6998C86.5975 38.6998 85.3926 37.4171 85.3926 35.979C85.3926 34.5408 86.5975 33.297 88.1134 33.297C89.5905 33.297 90.7954 34.5408 90.7954 35.979C90.7954 37.4171 89.5905 38.6998 88.1134 38.6998ZM85.7035 56.2673V41.7316H90.4456V56.2673H85.7035Z" fill="#BD3959"/>
<path d="M104.316 35.7055C108.708 35.7055 111.778 38.9316 111.778 43.4793V56.2673H107.192V44.4122C107.192 41.6914 105.443 39.7479 102.955 39.7479C100.467 39.7479 98.4074 41.4193 98.0965 43.5571V56.2673H93.3544V36.1719H98.0965V38.8539C99.3403 36.9882 101.672 35.7055 104.316 35.7055Z" fill="#BD3959"/>
<path d="M122.018 56.7338C118.948 56.7338 115.644 55.6454 113.234 53.702L115.372 50.3981C117.315 51.7974 119.57 52.7302 122.096 52.7302C124.001 52.7302 125.322 51.914 125.322 50.6702C125.322 49.1154 123.573 48.6101 121.28 47.9882C116.927 46.861 114.167 45.6172 114.128 42.0412C114.128 38.2709 117.237 35.7055 121.707 35.7055C124.467 35.7055 127.227 36.6772 129.404 38.1154L127.421 41.5747C125.517 40.3698 123.457 39.7479 121.707 39.7479C120.036 39.7479 118.753 40.4087 118.753 41.5359C118.753 42.8186 119.803 43.2073 122.874 44.1013C126.255 45.0341 129.909 46.2002 129.909 50.3981C129.909 54.2461 126.722 56.7338 122.018 56.7338Z" fill="#BD3959"/>
<path d="M145.301 36.1719H150.043V56.2673H145.301V53.5854C144.057 55.4511 141.725 56.7338 139.082 56.7338C134.69 56.7338 131.619 53.5076 131.619 48.9599V36.1719H136.206V48.0271C136.206 50.7479 137.955 52.6914 140.442 52.6914C142.93 52.6914 144.99 51.02 145.301 48.8822V36.1719Z" fill="#BD3959"/>
<path d="M157.795 40.0588C159.078 37.3769 161.682 35.7055 164.986 35.7055V39.7479C160.672 39.7479 157.795 42.3133 157.795 46.1225V56.2673H153.053V36.1719H157.795V40.0588Z" fill="#BD3959"/>
<path fill-rule="evenodd" clip-rule="evenodd" d="M71.037 20.2022C71.037 19.5733 70.6986 18.9931 70.1513 18.6833L39.5992 1.3946C37.15 0.00866017 34.1546 0.00378171 31.7009 1.38174L0.88941 18.685C0.340062 18.9936 0 19.5745 0 20.2046C0 21.1671 0.780263 21.9474 1.74277 21.9474H8.04211V55.4554C8.04211 57.6761 9.84235 59.4764 12.0631 59.4764H58.9743C61.195 59.4764 62.9953 57.6761 62.9953 55.4554V21.9474H69.2918C70.2557 21.9474 71.037 21.166 71.037 20.2022Z" fill="#BD3959"/>
<path d="M24.0903 38.0581C24.0903 40.915 21.772 43.2429 18.9055 43.2429C16.0486 43.2429 13.7207 40.9247 13.7207 38.0581C13.7207 35.2012 16.0389 32.8733 18.9055 32.8733C21.772 32.8733 24.0903 35.1916 24.0903 38.0581Z" fill="#FCA905"/>
<path d="M11.1143 59.3146H27.1688V52.9037C27.1688 48.106 23.5712 44.2241 19.1463 44.2241C14.7119 44.2241 11.1239 48.1164 11.1239 52.9037V59.3146H11.1143Z" fill="#FCA905"/>
<path d="M21.8154 59.4763H42.3933V50.9275C42.3933 46.1782 37.7867 42.328 32.1044 42.328C26.422 42.328 21.8154 46.1782 21.8154 50.9275V59.4763Z" fill="white"/>
<path d="M38.2105 34.5199C38.2105 37.7767 35.5678 40.4303 32.3001 40.4303C29.0323 40.4303 26.3896 37.7876 26.3896 34.5199C26.3896 31.2631 29.0323 28.6095 32.3001 28.6095C35.5678 28.6095 38.2105 31.2522 38.2105 34.5199Z" fill="white"/>
<path d="M54.8497 31.4036C54.8497 34.6603 52.207 37.314 48.9392 37.314C45.6715 37.314 43.0288 34.6713 43.0288 31.4036C43.0288 28.1468 45.6715 25.4931 48.9392 25.4931C52.207 25.4931 54.8497 28.1358 54.8497 31.4036Z" fill="#FCA905"/>
<path d="M38.4561 59.4764H59.034V49.2178C59.034 43.5187 54.4274 38.8984 48.745 38.8984C43.0627 38.8984 38.4561 43.5187 38.4561 49.2178V59.4764Z" fill="#FCA905"/>
<path d="M14.3561 76.6483H12.6584L12.0054 74.7368H9.00167L8.34869 76.6483H6.67469L9.53593 68.8125H11.4949L14.3561 76.6483ZM9.36971 73.5258H11.6373L10.4976 70.1066L9.36971 73.5258ZM24.676 70.1303H20.4495V72.1249H23.7856V73.4427H20.4495V76.6483H18.8111V68.8125H24.676V70.1303ZM32.095 76.6483H30.3973L29.7443 74.7368H26.7406L26.0876 76.6483H24.4136L27.2749 68.8125H29.2338L32.095 76.6483ZM27.1086 73.5258H29.3763L28.2365 70.1066L27.1086 73.5258ZM41.7816 68.8125V76.6483H40.2976V72.5642L40.3807 70.2728H40.357L38.1843 76.6483H36.8428L34.682 70.2728H34.6582L34.7414 72.5642V76.6483H33.2573V68.8125H35.6318L37.0446 73.0866L37.5432 74.8555H37.567L38.0775 73.0984L39.4784 68.8125H41.7816ZM45.4579 68.8125V76.6483H43.8195V68.8125H45.4579ZM49.1332 75.3304H53.2648V76.6483H47.4948V68.8125H49.1332V75.3304ZM59.4451 68.8125L56.6669 73.7158V76.6483H55.0286V73.7158L52.2504 68.8125H53.9957L55.2541 71.1632L55.8478 72.3861L56.4532 71.1632L57.7117 68.8125H59.4451ZM65.4577 68.8125V76.6483H63.8193V68.8125H65.4577ZM74.2262 68.8125V76.6483H72.3504L69.6079 72.0418L68.9312 70.7596H68.9193L68.9668 72.113V76.6483H67.4946V68.8125H69.3586L72.1011 73.4071L72.7778 74.7012H72.8015L72.7541 73.3477V68.8125H74.2262ZM79.1326 68.6938C79.8449 68.6938 80.4702 68.8165 81.0084 69.0618C81.5466 69.3072 82.0057 69.6713 82.3856 70.1541L81.4714 71.2107C81.1469 70.7992 80.7907 70.4984 80.4029 70.3084C80.023 70.1106 79.5797 70.0116 79.0732 70.0116C78.7408 70.0116 78.4637 70.0552 78.2421 70.1422C78.0284 70.2293 77.8701 70.344 77.7672 70.4865C77.6723 70.629 77.6248 70.7873 77.6248 70.9614C77.6248 71.1751 77.7079 71.3572 77.8741 71.5075C78.0403 71.65 78.3252 71.7687 78.7289 71.8637L80.1892 72.1961C80.9649 72.3703 81.5189 72.6314 81.8513 72.9797C82.1917 73.32 82.3618 73.7633 82.3618 74.3094C82.3618 74.8239 82.2273 75.2671 81.9582 75.6391C81.6891 76.0032 81.3131 76.2842 80.8303 76.482C80.3475 76.672 79.7935 76.767 79.1682 76.767C78.622 76.767 78.1195 76.7037 77.6604 76.577C77.2092 76.4425 76.8056 76.2604 76.4494 76.0309C76.0932 75.8014 75.7964 75.5362 75.559 75.2354L76.485 74.1313C76.6671 74.3846 76.8926 74.6102 77.1618 74.808C77.4309 75.0059 77.7356 75.1642 78.0759 75.2829C78.4242 75.3937 78.7883 75.4491 79.1682 75.4491C79.4927 75.4491 79.7657 75.4135 79.9874 75.3423C80.2169 75.2631 80.3871 75.1563 80.4979 75.0217C80.6166 74.8793 80.676 74.7091 80.676 74.5112C80.676 74.3054 80.6047 74.1313 80.4623 73.9889C80.3277 73.8385 80.0744 73.7237 79.7024 73.6446L78.1115 73.2884C77.6525 73.1776 77.2567 73.0351 76.9243 72.861C76.5998 72.6789 76.3505 72.4494 76.1763 72.1724C76.0101 71.8874 75.927 71.5511 75.927 71.1632C75.927 70.6963 76.0537 70.2768 76.3069 69.9048C76.5602 69.5328 76.9243 69.2399 77.3992 69.0262C77.882 68.8046 78.4598 68.6938 79.1326 68.6938ZM90.4535 68.8125V73.5614C90.4535 74.63 90.1685 75.4333 89.5987 75.9715C89.0288 76.5018 88.1977 76.767 87.1055 76.767C86.0132 76.767 85.1822 76.5018 84.6123 75.9715C84.0424 75.4333 83.7575 74.63 83.7575 73.5614V68.8125H85.3959V73.4902C85.3959 74.1471 85.5344 74.6339 85.8114 74.9505C86.0963 75.2671 86.5277 75.4254 87.1055 75.4254C87.6833 75.4254 88.1107 75.2671 88.3877 74.9505C88.6647 74.6339 88.8032 74.1471 88.8032 73.4902V68.8125H90.4535ZM95.7956 68.8125C96.682 68.8125 97.3785 69.0262 97.8851 69.4536C98.3916 69.881 98.6449 70.4549 98.6449 71.1751C98.6449 71.9429 98.3916 72.5325 97.8851 72.9441C97.3785 73.3477 96.686 73.5496 95.8074 73.5496L95.6412 73.6446H93.9553V76.6483H92.3407V68.8125H95.7956ZM95.6056 72.398C96.0647 72.398 96.405 72.3069 96.6266 72.1249C96.8562 71.9349 96.9709 71.646 96.9709 71.2582C96.9709 70.8704 96.8562 70.5855 96.6266 70.4034C96.405 70.2135 96.0647 70.1185 95.6056 70.1185H93.9553V72.398H95.6056ZM96.5673 72.7423L99.1079 76.6483H97.2677L95.1663 73.2172L96.5673 72.7423ZM107.213 76.6483H105.515L104.862 74.7368H101.859L101.206 76.6483H99.5316L102.393 68.8125H104.352L107.213 76.6483ZM102.227 73.5258H104.494L103.355 70.1066L102.227 73.5258ZM115.107 68.8125V76.6483H113.231L110.489 72.0418L109.812 70.7596H109.8L109.847 72.113V76.6483H108.375V68.8125H110.239L112.982 73.4071L113.659 74.7012H113.682L113.635 73.3477V68.8125H115.107ZM123.86 74.4875C123.71 74.994 123.472 75.4175 123.148 75.7578C122.823 76.0982 122.439 76.3514 121.996 76.5177C121.553 76.6839 121.066 76.767 120.536 76.767C119.76 76.767 119.087 76.6047 118.517 76.2802C117.955 75.9557 117.52 75.4927 117.211 74.8911C116.911 74.2896 116.76 73.5694 116.76 72.7304C116.76 71.8914 116.911 71.1712 117.211 70.5696C117.52 69.9681 117.955 69.5051 118.517 69.1806C119.087 68.856 119.752 68.6938 120.512 68.6938C121.05 68.6938 121.537 68.769 121.972 68.9194C122.408 69.0618 122.776 69.2835 123.076 69.5842C123.385 69.885 123.611 70.2649 123.753 70.724L122.269 71.3532C122.134 70.8783 121.929 70.5419 121.652 70.344C121.375 70.1383 121.018 70.0354 120.583 70.0354C120.156 70.0354 119.78 70.1383 119.455 70.344C119.139 70.5498 118.893 70.8546 118.719 71.2582C118.545 71.654 118.458 72.1447 118.458 72.7304C118.458 73.3082 118.537 73.7989 118.695 74.2026C118.862 74.6062 119.103 74.9109 119.42 75.1167C119.736 75.3225 120.124 75.4254 120.583 75.4254C121.011 75.4254 121.379 75.3106 121.687 75.0811C122.004 74.8516 122.225 74.5033 122.352 74.0363L123.86 74.4875ZM125.256 76.6483V68.8125H131.133V70.1303H126.895V72.0774H130.231V73.3359H126.895V75.3304H131.299V76.6483H125.256ZM143.106 74.4875C142.956 74.994 142.718 75.4175 142.394 75.7578C142.069 76.0982 141.685 76.3514 141.242 76.5177C140.799 76.6839 140.312 76.767 139.782 76.767C139.006 76.767 138.333 76.6047 137.764 76.2802C137.202 75.9557 136.766 75.4927 136.458 74.8911C136.157 74.2896 136.006 73.5694 136.006 72.7304C136.006 71.8914 136.157 71.1712 136.458 70.5696C136.766 69.9681 137.202 69.5051 137.764 69.1806C138.333 68.856 138.998 68.6938 139.758 68.6938C140.296 68.6938 140.783 68.769 141.218 68.9194C141.654 69.0618 142.022 69.2835 142.322 69.5842C142.631 69.885 142.857 70.2649 142.999 70.724L141.515 71.3532C141.381 70.8783 141.175 70.5419 140.898 70.344C140.621 70.1383 140.265 70.0354 139.829 70.0354C139.402 70.0354 139.026 70.1383 138.701 70.344C138.385 70.5498 138.139 70.8546 137.965 71.2582C137.791 71.654 137.704 72.1447 137.704 72.7304C137.704 73.3082 137.783 73.7989 137.942 74.2026C138.108 74.6062 138.349 74.9109 138.666 75.1167C138.982 75.3225 139.37 75.4254 139.829 75.4254C140.257 75.4254 140.625 75.3106 140.933 75.0811C141.25 74.8516 141.472 74.5033 141.598 74.0363L143.106 74.4875ZM147.886 68.6938C148.662 68.6938 149.331 68.856 149.892 69.1806C150.454 69.5051 150.886 69.9681 151.187 70.5696C151.495 71.1712 151.65 71.8914 151.65 72.7304C151.65 73.5694 151.495 74.2896 151.187 74.8911C150.886 75.4927 150.454 75.9557 149.892 76.2802C149.331 76.6047 148.662 76.767 147.886 76.767C147.11 76.767 146.438 76.6047 145.868 76.2802C145.306 75.9557 144.87 75.4927 144.562 74.8911C144.261 74.2896 144.111 73.5694 144.111 72.7304C144.111 71.8914 144.261 71.1712 144.562 70.5696C144.87 69.9681 145.306 69.5051 145.868 69.1806C146.438 68.856 147.11 68.6938 147.886 68.6938ZM147.886 70.0354C147.443 70.0354 147.067 70.1383 146.758 70.344C146.45 70.5498 146.212 70.8546 146.046 71.2582C145.888 71.654 145.808 72.1447 145.808 72.7304C145.808 73.3082 145.888 73.7989 146.046 74.2026C146.212 74.6062 146.45 74.9109 146.758 75.1167C147.067 75.3225 147.443 75.4254 147.886 75.4254C148.321 75.4254 148.693 75.3225 149.002 75.1167C149.311 74.9109 149.544 74.6062 149.703 74.2026C149.869 73.7989 149.952 73.3082 149.952 72.7304C149.952 72.1447 149.869 71.654 149.703 71.2582C149.544 70.8546 149.311 70.5498 149.002 70.344C148.693 70.1383 148.321 70.0354 147.886 70.0354ZM161.827 68.8125V76.6483H160.343V72.5642L160.426 70.2728H160.402L158.229 76.6483H156.888L154.727 70.2728H154.703L154.786 72.5642V76.6483H153.302V68.8125H155.677L157.09 73.0866L157.588 74.8555H157.612L158.123 73.0984L159.523 68.8125H161.827ZM167.153 68.8125C167.755 68.8125 168.269 68.9154 168.697 69.1212C169.124 69.3191 169.452 69.608 169.682 69.9879C169.919 70.3599 170.038 70.811 170.038 71.3413C170.038 71.8716 169.919 72.3267 169.682 72.7066C169.452 73.0786 169.124 73.3675 168.697 73.5733C168.269 73.7712 167.755 73.8701 167.153 73.8701H165.503V76.6483H163.865V68.8125H167.153ZM166.904 72.576C167.395 72.576 167.763 72.4732 168.008 72.2674C168.253 72.0537 168.376 71.745 168.376 71.3413C168.376 70.9297 168.253 70.6211 168.008 70.4153C167.763 70.2095 167.395 70.1066 166.904 70.1066H165.503V72.576H166.904ZM177.635 76.6483H175.938L175.285 74.7368H172.281L171.628 76.6483H169.954L172.815 68.8125H174.774L177.635 76.6483ZM172.649 73.5258H174.917L173.777 70.1066L172.649 73.5258ZM185.529 68.8125V76.6483H183.654L180.911 72.0418L180.234 70.7596H180.222L180.27 72.113V76.6483H178.798V68.8125H180.662L183.404 73.4071L184.081 74.7012H184.105L184.057 73.3477V68.8125H185.529ZM193.867 68.8125L191.089 73.7158V76.6483H189.45V73.7158L186.672 68.8125H188.417L189.676 71.1632L190.269 72.3861L190.875 71.1632L192.133 68.8125H193.867Z" fill="black"/>
</svg>
