<svg width="197" height="80" viewBox="0 0 197 80" fill="none" xmlns="http://www.w3.org/2000/svg">
<path d="M95.9507 6.83104H79.8588V15.6155H94.357V18.4918H79.8588V30.6579H76.7881V3.95471H95.9507V6.83104Z" fill="white"/>
<path d="M112.174 10.5625H115.089V30.6579H112.174V27.4318C111.008 29.5696 108.403 31.1244 105.566 31.1244C101.135 31.1244 98.0253 27.8982 98.0253 23.3505V10.5625H100.941V22.9618C100.941 26.2268 103.001 28.5201 105.955 28.5201C109.336 28.5201 112.174 26.1491 112.174 23.3505V10.5625Z" fill="white"/>
<path d="M127.519 27.7039L128.957 29.8417C127.908 30.6579 126.586 31.1244 125.226 31.1244C122.35 31.1244 120.328 28.9865 120.328 25.9936V13.1667H117.18V10.5625H120.328V5.04305H123.244V10.5625H128.18V13.1667H123.244V25.9936C123.244 27.4706 124.254 28.5201 125.42 28.5201C126.314 28.5201 127.092 28.1703 127.519 27.7039Z" fill="white"/>
<path d="M144.898 10.5625H147.814V30.6579H144.898V27.4318C143.732 29.5696 141.128 31.1244 138.291 31.1244C133.859 31.1244 130.75 27.8982 130.75 23.3505V10.5625H133.665V22.9618C133.665 26.2268 135.725 28.5201 138.679 28.5201C142.061 28.5201 144.898 26.1491 144.898 23.3505V10.5625Z" fill="white"/>
<path d="M154.608 14.4883C155.813 11.8063 158.689 10.0961 162.382 10.0961V12.7003C157.834 12.7003 154.608 15.4989 154.608 19.4247V30.6579H151.693V10.5625H154.608V14.4883Z" fill="white"/>
<path d="M173.138 28.5201C175.509 28.5201 178.23 27.4706 179.474 26.1102L181.262 28.0148C179.513 29.9194 175.976 31.1244 173.177 31.1244C167.813 31.1244 162.994 26.7321 162.994 20.5519C162.994 14.566 167.502 10.0961 172.905 10.0961C178.969 10.0961 182.428 14.6826 182.428 21.718H165.986C166.414 25.6438 169.174 28.5201 173.138 28.5201ZM173.022 12.7003C169.446 12.7003 166.57 15.2268 166.025 19.1137H179.552C179.163 15.4989 177.025 12.7003 173.022 12.7003Z" fill="white"/>
<path d="M186.882 22.864V18.6862H196.95V22.864H186.882Z" fill="white"/>
<path d="M88.1134 38.5563C86.5975 38.5563 85.3926 37.2736 85.3926 35.8355C85.3926 34.3973 86.5975 33.1535 88.1134 33.1535C89.5905 33.1535 90.7954 34.3973 90.7954 35.8355C90.7954 37.2736 89.5905 38.5563 88.1134 38.5563ZM85.7035 56.1238V41.5881H90.4456V56.1238H85.7035Z" fill="white"/>
<path d="M104.316 35.562C108.708 35.562 111.778 38.7881 111.778 43.3358V56.1238H107.192V44.2687C107.192 41.5478 105.443 39.6044 102.955 39.6044C100.467 39.6044 98.4074 41.2757 98.0965 43.4136V56.1238H93.3544V36.0284H98.0965V38.7104C99.3403 36.8446 101.672 35.562 104.316 35.562Z" fill="white"/>
<path d="M122.018 56.5903C118.948 56.5903 115.644 55.5019 113.234 53.5584L115.372 50.2546C117.315 51.6539 119.57 52.5867 122.096 52.5867C124.001 52.5867 125.322 51.7705 125.322 50.5266C125.322 48.9719 123.573 48.4666 121.28 47.8447C116.927 46.7175 114.167 45.4736 114.128 41.8977C114.128 38.1273 117.237 35.562 121.707 35.562C124.467 35.562 127.227 36.5337 129.404 37.9719L127.421 41.4312C125.517 40.2263 123.457 39.6044 121.707 39.6044C120.036 39.6044 118.753 40.2651 118.753 41.3924C118.753 42.675 119.803 43.0637 122.874 43.9577C126.255 44.8906 129.909 46.0567 129.909 50.2546C129.909 54.1026 126.722 56.5903 122.018 56.5903Z" fill="white"/>
<path d="M145.301 36.0284H150.043V56.1238H145.301V53.4418C144.057 55.3076 141.725 56.5903 139.082 56.5903C134.69 56.5903 131.619 53.3641 131.619 48.8164V36.0284H136.206V47.8835C136.206 50.6044 137.955 52.5478 140.442 52.5478C142.93 52.5478 144.99 50.8765 145.301 48.7387V36.0284Z" fill="white"/>
<path d="M157.795 39.9153C159.078 37.2333 161.682 35.562 164.986 35.562V39.6044C160.672 39.6044 157.795 42.1697 157.795 45.9789V56.1238H153.053V36.0284H157.795V39.9153Z" fill="white"/>
<path fill-rule="evenodd" clip-rule="evenodd" d="M71.037 19.8505C71.037 19.2216 70.6986 18.6414 70.1513 18.3316L39.5992 1.0429C37.15 -0.343038 34.1546 -0.347916 31.7009 1.03004L0.88941 18.3333C0.340062 18.6419 0 19.2228 0 19.8529C0 20.8154 0.780263 21.5957 1.74277 21.5957H8.04211V55.1037C8.04211 57.3244 9.84235 59.1247 12.0631 59.1247H58.9743C61.195 59.1247 62.9953 57.3244 62.9953 55.1037V21.5957H69.2918C70.2557 21.5957 71.037 20.8143 71.037 19.8505Z" fill="white"/>
<path d="M24.0903 37.7064C24.0903 40.5633 21.772 42.8912 18.9055 42.8912C16.0486 42.8912 13.7207 40.5729 13.7207 37.7064C13.7207 34.8495 16.0389 32.5216 18.9055 32.5216C21.772 32.5216 24.0903 34.8399 24.0903 37.7064Z" fill="#FCA905"/>
<path d="M11.1143 58.9629H27.1688V52.552C27.1688 47.7543 23.5712 43.8724 19.1463 43.8724C14.7119 43.8724 11.1239 47.7647 11.1239 52.552V58.9629H11.1143Z" fill="#FCA905"/>
<path d="M21.8154 59.1246H42.3933V50.5758C42.3933 45.8265 37.7867 41.9763 32.1044 41.9763C26.422 41.9763 21.8154 45.8265 21.8154 50.5758V59.1246Z" fill="#BD3958"/>
<path d="M38.2105 34.1682C38.2105 37.425 35.5678 40.0786 32.3001 40.0786C29.0323 40.0786 26.3896 37.4359 26.3896 34.1682C26.3896 30.9114 29.0323 28.2578 32.3001 28.2578C35.5678 28.2578 38.2105 30.9004 38.2105 34.1682Z" fill="#BD3958"/>
<path d="M54.8497 31.0518C54.8497 34.3086 52.207 36.9623 48.9392 36.9623C45.6715 36.9623 43.0288 34.3196 43.0288 31.0518C43.0288 27.7951 45.6715 25.1414 48.9392 25.1414C52.207 25.1414 54.8497 27.7841 54.8497 31.0518Z" fill="#FCA905"/>
<path d="M38.4561 59.1246H59.034V48.8661C59.034 43.1669 54.4274 38.5467 48.745 38.5467C43.0627 38.5467 38.4561 43.1669 38.4561 48.8661V59.1246Z" fill="#FCA905"/>
<path d="M14.3561 76.5048H12.6584L12.0054 74.5933H9.00167L8.34869 76.5048H6.67469L9.53593 68.669H11.4949L14.3561 76.5048ZM9.36971 73.3823H11.6373L10.4976 69.9631L9.36971 73.3823ZM24.676 69.9869H20.4495V71.9814H23.7856V73.2992H20.4495V76.5048H18.8111V68.669H24.676V69.9869ZM32.095 76.5048H30.3973L29.7443 74.5933H26.7406L26.0876 76.5048H24.4136L27.2749 68.669H29.2338L32.095 76.5048ZM27.1086 73.3823H29.3763L28.2365 69.9631L27.1086 73.3823ZM41.7816 68.669V76.5048H40.2976V72.4207L40.3807 70.1293H40.357L38.1843 76.5048H36.8428L34.682 70.1293H34.6582L34.7414 72.4207V76.5048H33.2573V68.669H35.6318L37.0446 72.9431L37.5432 74.712H37.567L38.0775 72.9549L39.4784 68.669H41.7816ZM45.4579 68.669V76.5048H43.8195V68.669H45.4579ZM49.1332 75.1869H53.2648V76.5048H47.4948V68.669H49.1332V75.1869ZM59.4451 68.669L56.6669 73.5723V76.5048H55.0286V73.5723L52.2504 68.669H53.9957L55.2541 71.0197L55.8478 72.2426L56.4532 71.0197L57.7117 68.669H59.4451ZM65.4577 68.669V76.5048H63.8193V68.669H65.4577ZM74.2262 68.669V76.5048H72.3504L69.6079 71.8983L68.9312 70.6161H68.9193L68.9668 71.9695V76.5048H67.4946V68.669H69.3586L72.1011 73.2636L72.7778 74.5577H72.8015L72.7541 73.2043V68.669H74.2262ZM79.1326 68.5503C79.8449 68.5503 80.4702 68.673 81.0084 68.9183C81.5466 69.1637 82.0057 69.5278 82.3856 70.0106L81.4714 71.0672C81.1469 70.6557 80.7907 70.3549 80.4029 70.1649C80.023 69.9671 79.5797 69.8681 79.0732 69.8681C78.7408 69.8681 78.4637 69.9117 78.2421 69.9987C78.0284 70.0858 77.8701 70.2006 77.7672 70.343C77.6723 70.4855 77.6248 70.6438 77.6248 70.8179C77.6248 71.0316 77.7079 71.2137 77.8741 71.364C78.0403 71.5065 78.3252 71.6252 78.7289 71.7202L80.1892 72.0526C80.9649 72.2268 81.5189 72.488 81.8513 72.8362C82.1917 73.1766 82.3618 73.6198 82.3618 74.1659C82.3618 74.6804 82.2273 75.1236 81.9582 75.4956C81.6891 75.8597 81.3131 76.1407 80.8303 76.3385C80.3475 76.5285 79.7935 76.6235 79.1682 76.6235C78.622 76.6235 78.1195 76.5602 77.6604 76.4335C77.2092 76.299 76.8056 76.1169 76.4494 75.8874C76.0932 75.6579 75.7964 75.3927 75.559 75.092L76.485 73.9878C76.6671 74.2411 76.8926 74.4667 77.1618 74.6645C77.4309 74.8624 77.7356 75.0207 78.0759 75.1394C78.4242 75.2503 78.7883 75.3057 79.1682 75.3057C79.4927 75.3057 79.7657 75.27 79.9874 75.1988C80.2169 75.1197 80.3871 75.0128 80.4979 74.8783C80.6166 74.7358 80.676 74.5656 80.676 74.3677C80.676 74.162 80.6047 73.9878 80.4623 73.8454C80.3277 73.695 80.0744 73.5802 79.7024 73.5011L78.1115 73.1449C77.6525 73.0341 77.2567 72.8916 76.9243 72.7175C76.5998 72.5354 76.3505 72.3059 76.1763 72.0289C76.0101 71.744 75.927 71.4076 75.927 71.0197C75.927 70.5528 76.0537 70.1333 76.3069 69.7613C76.5602 69.3893 76.9243 69.0964 77.3992 68.8827C77.882 68.6611 78.4598 68.5503 79.1326 68.5503ZM90.4535 68.669V73.418C90.4535 74.4865 90.1685 75.2898 89.5987 75.828C89.0288 76.3583 88.1977 76.6235 87.1055 76.6235C86.0132 76.6235 85.1822 76.3583 84.6123 75.828C84.0424 75.2898 83.7575 74.4865 83.7575 73.418V68.669H85.3959V73.3467C85.3959 74.0037 85.5344 74.4904 85.8114 74.807C86.0963 75.1236 86.5277 75.2819 87.1055 75.2819C87.6833 75.2819 88.1107 75.1236 88.3877 74.807C88.6647 74.4904 88.8032 74.0037 88.8032 73.3467V68.669H90.4535ZM95.7956 68.669C96.682 68.669 97.3785 68.8827 97.8851 69.3101C98.3916 69.7375 98.6449 70.3114 98.6449 71.0316C98.6449 71.7994 98.3916 72.389 97.8851 72.8006C97.3785 73.2043 96.686 73.4061 95.8074 73.4061L95.6412 73.5011H93.9553V76.5048H92.3407V68.669H95.7956ZM95.6056 72.2545C96.0647 72.2545 96.405 72.1634 96.6266 71.9814C96.8562 71.7914 96.9709 71.5026 96.9709 71.1147C96.9709 70.7269 96.8562 70.442 96.6266 70.2599C96.405 70.07 96.0647 69.975 95.6056 69.975H93.9553V72.2545H95.6056ZM96.5673 72.5988L99.1079 76.5048H97.2677L95.1663 73.0737L96.5673 72.5988ZM107.213 76.5048H105.515L104.862 74.5933H101.859L101.206 76.5048H99.5316L102.393 68.669H104.352L107.213 76.5048ZM102.227 73.3823H104.494L103.355 69.9631L102.227 73.3823ZM115.107 68.669V76.5048H113.231L110.489 71.8983L109.812 70.6161H109.8L109.847 71.9695V76.5048H108.375V68.669H110.239L112.982 73.2636L113.659 74.5577H113.682L113.635 73.2043V68.669H115.107ZM123.86 74.344C123.71 74.8505 123.472 75.274 123.148 75.6143C122.823 75.9547 122.439 76.208 121.996 76.3742C121.553 76.5404 121.066 76.6235 120.536 76.6235C119.76 76.6235 119.087 76.4612 118.517 76.1367C117.955 75.8122 117.52 75.3492 117.211 74.7477C116.911 74.1461 116.76 73.4259 116.76 72.5869C116.76 71.7479 116.911 71.0277 117.211 70.4261C117.52 69.8246 117.955 69.3616 118.517 69.0371C119.087 68.7126 119.752 68.5503 120.512 68.5503C121.05 68.5503 121.537 68.6255 121.972 68.7759C122.408 68.9183 122.776 69.14 123.076 69.4407C123.385 69.7415 123.611 70.1214 123.753 70.5805L122.269 71.2097C122.134 70.7348 121.929 70.3984 121.652 70.2006C121.375 69.9948 121.018 69.8919 120.583 69.8919C120.156 69.8919 119.78 69.9948 119.455 70.2006C119.139 70.4063 118.893 70.7111 118.719 71.1147C118.545 71.5105 118.458 72.0012 118.458 72.5869C118.458 73.1647 118.537 73.6554 118.695 74.0591C118.862 74.4627 119.103 74.7674 119.42 74.9732C119.736 75.179 120.124 75.2819 120.583 75.2819C121.011 75.2819 121.379 75.1671 121.687 74.9376C122.004 74.7081 122.225 74.3598 122.352 73.8928L123.86 74.344ZM125.256 76.5048V68.669H131.133V69.9869H126.895V71.9339H130.231V73.1924H126.895V75.1869H131.299V76.5048H125.256ZM143.106 74.344C142.956 74.8505 142.718 75.274 142.394 75.6143C142.069 75.9547 141.685 76.208 141.242 76.3742C140.799 76.5404 140.312 76.6235 139.782 76.6235C139.006 76.6235 138.333 76.4612 137.764 76.1367C137.202 75.8122 136.766 75.3492 136.458 74.7477C136.157 74.1461 136.006 73.4259 136.006 72.5869C136.006 71.7479 136.157 71.0277 136.458 70.4261C136.766 69.8246 137.202 69.3616 137.764 69.0371C138.333 68.7126 138.998 68.5503 139.758 68.5503C140.296 68.5503 140.783 68.6255 141.218 68.7759C141.654 68.9183 142.022 69.14 142.322 69.4407C142.631 69.7415 142.857 70.1214 142.999 70.5805L141.515 71.2097C141.381 70.7348 141.175 70.3984 140.898 70.2006C140.621 69.9948 140.265 69.8919 139.829 69.8919C139.402 69.8919 139.026 69.9948 138.701 70.2006C138.385 70.4063 138.139 70.7111 137.965 71.1147C137.791 71.5105 137.704 72.0012 137.704 72.5869C137.704 73.1647 137.783 73.6554 137.942 74.0591C138.108 74.4627 138.349 74.7674 138.666 74.9732C138.982 75.179 139.37 75.2819 139.829 75.2819C140.257 75.2819 140.625 75.1671 140.933 74.9376C141.25 74.7081 141.472 74.3598 141.598 73.8928L143.106 74.344ZM147.886 68.5503C148.662 68.5503 149.331 68.7126 149.892 69.0371C150.454 69.3616 150.886 69.8246 151.187 70.4261C151.495 71.0277 151.65 71.7479 151.65 72.5869C151.65 73.4259 151.495 74.1461 151.187 74.7477C150.886 75.3492 150.454 75.8122 149.892 76.1367C149.331 76.4612 148.662 76.6235 147.886 76.6235C147.11 76.6235 146.438 76.4612 145.868 76.1367C145.306 75.8122 144.87 75.3492 144.562 74.7477C144.261 74.1461 144.111 73.4259 144.111 72.5869C144.111 71.7479 144.261 71.0277 144.562 70.4261C144.87 69.8246 145.306 69.3616 145.868 69.0371C146.438 68.7126 147.11 68.5503 147.886 68.5503ZM147.886 69.8919C147.443 69.8919 147.067 69.9948 146.758 70.2006C146.45 70.4063 146.212 70.7111 146.046 71.1147C145.888 71.5105 145.808 72.0012 145.808 72.5869C145.808 73.1647 145.888 73.6554 146.046 74.0591C146.212 74.4627 146.45 74.7674 146.758 74.9732C147.067 75.179 147.443 75.2819 147.886 75.2819C148.321 75.2819 148.693 75.179 149.002 74.9732C149.311 74.7674 149.544 74.4627 149.703 74.0591C149.869 73.6554 149.952 73.1647 149.952 72.5869C149.952 72.0012 149.869 71.5105 149.703 71.1147C149.544 70.7111 149.311 70.4063 149.002 70.2006C148.693 69.9948 148.321 69.8919 147.886 69.8919ZM161.827 68.669V76.5048H160.343V72.4207L160.426 70.1293H160.402L158.229 76.5048H156.888L154.727 70.1293H154.703L154.786 72.4207V76.5048H153.302V68.669H155.677L157.09 72.9431L157.588 74.712H157.612L158.123 72.9549L159.523 68.669H161.827ZM167.153 68.669C167.755 68.669 168.269 68.7719 168.697 68.9777C169.124 69.1756 169.452 69.4645 169.682 69.8444C169.919 70.2164 170.038 70.6675 170.038 71.1978C170.038 71.7281 169.919 72.1832 169.682 72.5631C169.452 72.9351 169.124 73.224 168.697 73.4298C168.269 73.6277 167.755 73.7266 167.153 73.7266H165.503V76.5048H163.865V68.669H167.153ZM166.904 72.4326C167.395 72.4326 167.763 72.3297 168.008 72.1239C168.253 71.9102 168.376 71.6015 168.376 71.1978C168.376 70.7863 168.253 70.4776 168.008 70.2718C167.763 70.066 167.395 69.9631 166.904 69.9631H165.503V72.4326H166.904ZM177.635 76.5048H175.938L175.285 74.5933H172.281L171.628 76.5048H169.954L172.815 68.669H174.774L177.635 76.5048ZM172.649 73.3823H174.917L173.777 69.9631L172.649 73.3823ZM185.529 68.669V76.5048H183.654L180.911 71.8983L180.234 70.6161H180.222L180.27 71.9695V76.5048H178.798V68.669H180.662L183.404 73.2636L184.081 74.5577H184.105L184.057 73.2043V68.669H185.529ZM193.867 68.669L191.089 73.5723V76.5048H189.45V73.5723L186.672 68.669H188.417L189.676 71.0197L190.269 72.2426L190.875 71.0197L192.133 68.669H193.867Z" fill="white"/>
</svg>
